<?xml version="1.0" encoding="UTF-8" standalone="no"?>
<svg
   xmlns:dc="http://purl.org/dc/elements/1.1/"
   xmlns:cc="http://creativecommons.org/ns#"
   xmlns:rdf="http://www.w3.org/1999/02/22-rdf-syntax-ns#"
   xmlns:svg="http://www.w3.org/2000/svg"
   xmlns="http://www.w3.org/2000/svg"
   viewBox="0 0 377.94666 377.94666"
   height="377.94666"
   width="377.94666"
   xml:space="preserve"
   id="svg2"
   version="1.1"><metadata
     id="metadata8"><rdf:RDF><cc:Work
         rdf:about=""><dc:format>image/svg+xml</dc:format><dc:type
           rdf:resource="http://purl.org/dc/dcmitype/StillImage" /></cc:Work></rdf:RDF></metadata><defs
     id="defs6"><clipPath
       id="clipPath18"
       clipPathUnits="userSpaceOnUse"><path
         id="path16"
         d="M 0,283.46 H 283.46 V 0 H 0 Z" /></clipPath></defs><g
     transform="matrix(1.3333333,0,0,-1.3333333,0,377.94667)"
     id="g10"><g
       id="g12"><g
         clip-path="url(#clipPath18)"
         id="g14"><g
           transform="translate(-0.0024,35.4316)"
           id="g20"><path
             id="path22"
             style="fill:#007ac9;fill-opacity:1;fill-rule:nonzero;stroke:none"
             d="m 0,0 c 0,-19.488 15.945,-35.435 35.434,-35.435 h 212.597 c 19.489,0 35.434,15.947 35.434,35.435 v 212.598 c 0,19.487 -15.945,35.433 -35.434,35.433 H 35.434 C 15.945,248.031 0,232.085 0,212.598 Z" /></g><g
           transform="translate(178.5869,119.7549)"
           id="g24"><path
             id="path26"
             style="fill:#ffffff;fill-opacity:1;fill-rule:nonzero;stroke:none"
             d="M 0,0 -37.308,85.838 -74.616,0 Z m -138.918,-60.057 78.861,175.923 c 4.247,9.403 11.829,15.166 22.446,15.166 h 1.82 c 10.615,0 17.895,-5.763 22.142,-15.166 L 65.212,-60.057 c 1.517,-2.729 2.123,-5.459 2.123,-7.885 0,-10.01 -7.582,-17.896 -17.592,-17.896 -8.796,0 -14.862,5.156 -18.199,13.043 L 14.256,-33.061 H -88.872 l -17.895,-40.948 c -3.033,-7.583 -9.403,-11.829 -17.289,-11.829 -9.706,0 -17.289,7.583 -17.289,17.289 0,2.73 0.91,5.46 2.427,8.492" /></g></g></g></g></svg>