<svg xmlns="http://www.w3.org/2000/svg" viewBox="0 0 283.46 283.46"><path fill="#007ac9" d="M-.003 248.028c0 19.488 15.945 35.434 35.434 35.434h212.598c19.489 0 35.434-15.946 35.434-35.434V35.43c0-19.488-15.945-35.432-35.434-35.432H35.431C15.942-.002-.003 15.942-.003 35.43v212.598z"/><path fill="#fff" d="M133.972 56.124l-77.843 77.839c-.661.731-3.221 3.421-3.221 7.768 0 4.348 2.56 7.106 3.212 7.758l.002.002 77.85 77.848c4.285 4.285 11.232 4.285 15.52 0 4.283-4.285 4.283-11.234-.002-15.52l-59.118-59.117 129.201.003c6.06 0 10.972-4.913 10.972-10.974 0-6.06-4.912-10.974-10.972-10.974H90.372l59.118-59.112c4.285-4.286 4.285-11.233.002-15.519-4.288-4.285-11.235-4.285-15.52-.002"/></svg>