<svg xmlns="http://www.w3.org/2000/svg" viewBox="0 0 283.46 283.46"><switch><g><path fill="#007ec7" d="M-.002 247.937c0 19.651 15.874 35.525 35.525 35.525h212.789c19.276 0 35.151-15.874 35.151-35.525V35.148c0-19.275-15.875-35.149-35.151-35.149H35.522C15.871-.001-.003 15.873-.003 35.148v212.789z"/><path fill="#fff" d="M224.502 35.524c-28.347-3.402-54.05-5.287-82.396-5.287-29.48 0-55.176 1.51-83.147 5.287-8.695 1.133-13.607 6.051-13.607 13.606v165.925c0 5.286 4.16 9.07 7.562 9.823l10.58 1.892v22.301c0 2.643 2.268 4.153 4.911 4.153h17.008c2.268 0 4.536-1.51 4.536-4.153v-19.658c13.606 1.517 32.506 2.269 51.406 2.269 18.894 0 38.551-.752 52.158-2.269v19.658c0 2.643 2.267 4.153 4.535 4.153h17.008c2.643 0 4.91-1.51 4.91-4.153V226.77l10.581-1.892c4.16-.753 7.561-4.153 7.561-9.823V49.129c-.001-7.555-4.912-12.473-13.606-13.605M76.343 209.761c-5.287-.375-9.447-4.535-9.447-9.446.376-4.917 4.535-9.07 9.447-9.07 4.917 0 9.07 4.153 9.07 9.07 0 5.287-4.153 9.446-9.07 9.446m129.641 0c-5.294-.375-9.453-4.535-9.453-9.446.383-4.917 4.534-9.07 9.453-9.07 4.911 0 9.071 4.153 9.071 9.07.001 5.287-4.16 9.446-9.071 9.446m17.009-46.488v.758c0 4.536-1.894 7.18-7.563 7.937-20.409 3.402-46.864 6.804-72.943 6.804-27.21 0-52.914-3.026-73.7-7.561-5.669-1.134-7.562-3.402-7.562-7.938V59.716c0-4.535 1.893-7.937 7.562-7.937l146.643.751c5.669 0 7.563 3.402 7.563 7.937v102.806z"/></g></switch></svg>