<?xml version="1.0" encoding="UTF-8" standalone="no"?>
<svg
   xmlns:dc="http://purl.org/dc/elements/1.1/"
   xmlns:cc="http://creativecommons.org/ns#"
   xmlns:rdf="http://www.w3.org/1999/02/22-rdf-syntax-ns#"
   xmlns:svg="http://www.w3.org/2000/svg"
   xmlns="http://www.w3.org/2000/svg"
   viewBox="0 0 377.94666 377.94666"
   height="377.94666"
   width="377.94666"
   xml:space="preserve"
   id="svg2"
   version="1.1"><metadata
     id="metadata8"><rdf:RDF><cc:Work
         rdf:about=""><dc:format>image/svg+xml</dc:format><dc:type
           rdf:resource="http://purl.org/dc/dcmitype/StillImage" /></cc:Work></rdf:RDF></metadata><defs
     id="defs6"><clipPath
       id="clipPath18"
       clipPathUnits="userSpaceOnUse"><path
         id="path16"
         d="M 0,283.46 H 283.46 V 0 H 0 Z" /></clipPath></defs><g
     transform="matrix(1.3333333,0,0,-1.3333333,0,377.94667)"
     id="g10"><g
       id="g12"><g
         clip-path="url(#clipPath18)"
         id="g14"><g
           transform="translate(-0.0024,35.4316)"
           id="g20"><path
             id="path22"
             style="fill:#007ac9;fill-opacity:1;fill-rule:nonzero;stroke:none"
             d="m 0,0 c 0,-19.488 15.945,-35.435 35.434,-35.435 h 212.597 c 19.489,0 35.434,15.947 35.434,35.435 v 212.598 c 0,19.487 -15.945,35.433 -35.434,35.433 H 35.434 C 15.945,248.031 0,232.085 0,212.598 Z" /></g><g
           transform="translate(47.707,140.9873)"
           id="g24"><path
             id="path26"
             style="fill:#ffffff;fill-opacity:1;fill-rule:nonzero;stroke:none"
             d="m 0,0 v 0.607 c 0,60.359 45.194,109.799 109.496,109.799 32.759,0 54.294,-9.706 72.796,-23.962 3.943,-3.033 7.279,-8.189 7.279,-14.862 0,-10.313 -8.189,-18.199 -18.502,-18.199 -5.156,0 -8.796,1.82 -11.222,3.64 -14.56,11.829 -30.331,19.108 -50.654,19.108 -40.34,0 -70.065,-33.364 -70.065,-74.918 V 0.607 c 0,-41.555 29.421,-75.222 70.065,-75.222 22.446,0 37.611,7.279 53.08,20.321 2.73,2.427 6.673,4.247 11.223,4.247 9.402,0 17.592,-7.887 17.592,-17.289 0,-5.763 -2.73,-10.312 -6.067,-13.346 -20.018,-17.592 -42.766,-28.511 -77.042,-28.511 C 46.104,-109.193 0,-60.967 0,0" /></g></g></g></g></svg>