<svg xmlns="http://www.w3.org/2000/svg" viewBox="0 0 283.46 283.46"><path fill="#007ac9" d="M-.002 248.028c0 19.488 15.945 35.435 35.434 35.435h212.597c19.489 0 35.435-15.946 35.435-35.435V35.431c0-19.488-15.945-35.433-35.435-35.433H35.432C15.943-.002-.002 15.943-.002 35.431v212.597z"/><path fill="#fff" d="M50.436 54.512c0-10.616 8.189-18.805 18.805-18.805h60.36c66.729 0 112.833 45.8 112.833 105.553v.606c0 59.753-46.104 106.16-112.833 106.16h-60.36c-10.616 0-18.805-8.189-18.805-18.806V54.512zm79.165 159.543c44.587 0 73.706-30.027 73.706-71.582v-.606c0-41.554-29.118-72.188-73.706-72.188H87.744v144.377h41.857z"/></svg>