<?xml version="1.0" encoding="UTF-8" standalone="no"?>
<svg
   xmlns:dc="http://purl.org/dc/elements/1.1/"
   xmlns:cc="http://creativecommons.org/ns#"
   xmlns:rdf="http://www.w3.org/1999/02/22-rdf-syntax-ns#"
   xmlns:svg="http://www.w3.org/2000/svg"
   xmlns="http://www.w3.org/2000/svg"
   viewBox="0 0 377.94666 377.94666"
   height="377.94666"
   width="377.94666"
   xml:space="preserve"
   id="svg2"
   version="1.1"><metadata
     id="metadata8"><rdf:RDF><cc:Work
         rdf:about=""><dc:format>image/svg+xml</dc:format><dc:type
           rdf:resource="http://purl.org/dc/dcmitype/StillImage" /></cc:Work></rdf:RDF></metadata><defs
     id="defs6"><clipPath
       id="clipPath18"
       clipPathUnits="userSpaceOnUse"><path
         id="path16"
         d="M 0,283.46 H 283.46 V 0 H 0 Z" /></clipPath></defs><g
     transform="matrix(1.3333333,0,0,-1.3333333,0,377.94667)"
     id="g10"><g
       id="g12"><g
         clip-path="url(#clipPath18)"
         id="g14"><g
           transform="translate(-0.0029,35.4316)"
           id="g20"><path
             id="path22"
             style="fill:#8c4799;fill-opacity:1;fill-rule:nonzero;stroke:none"
             d="m 0,0 c 0,-19.488 15.945,-35.434 35.434,-35.434 h 212.598 c 19.489,0 35.434,15.946 35.434,35.434 v 212.598 c 0,19.488 -15.945,35.432 -35.434,35.432 H 35.434 C 15.945,248.03 0,232.086 0,212.598 Z" /></g><g
           transform="translate(216.7524,192.7539)"
           id="g24"><path
             id="path26"
             style="fill:#ffffff;fill-opacity:1;fill-rule:nonzero;stroke:none"
             d="m 0,0 -16.25,-70.299 c -1.133,-6.046 -7.185,-10.964 -13.229,-10.964 h -90.709 c -6.045,0 -12.098,4.918 -13.232,10.964 L -150.045,0 c -1.134,6.044 3.02,10.962 9.071,10.962 H -8.695 C -2.643,10.962 1.51,6.044 0,0 m -29.479,-114.896 c -4.912,0 -8.696,3.777 -8.696,8.688 0,4.918 3.784,8.696 8.696,8.696 4.91,0 9.07,-3.778 9.07,-8.696 0,-4.911 -4.16,-8.688 -9.07,-8.688 m -90.709,-1.134 c -4.912,0 -8.696,3.777 -8.696,8.689 0,4.917 3.784,8.695 8.696,8.695 4.911,0 9.07,-3.778 9.07,-8.695 0,-4.912 -4.159,-8.689 -9.07,-8.689 m -8.696,158.358 h 107.717 v -6.045 c 0,-4.535 -3.777,-8.312 -8.312,-8.312 h -90.709 c -4.536,0 -8.696,3.777 -8.696,8.312 z M 17.384,26.078 C 10.964,39.685 6.045,50.265 0.759,54.801 c -7.938,7.185 -41.577,15.122 -75.969,15.122 -33.264,0 -67.656,-7.937 -75.218,-15.122 -5.286,-4.536 -10.58,-15.116 -17.008,-28.723 -5.286,-11.714 -9.446,-22.677 -9.446,-29.104 V -105.45 c 0,-8.312 2.643,-11.714 13.607,-20.408 8.312,-6.429 11.713,-9.072 24.186,-9.072 h 23.436 v -15.498 h 82.013 v 15.498 h 23.06 c 12.474,0 15.874,2.643 23.811,9.072 10.956,9.07 13.606,12.096 13.606,20.408 V -3.026 c 0,6.427 -4.534,17.39 -9.453,29.104 M 7.937,-161.009 c 3.777,0 6.804,-3.025 6.804,-6.803 0,-3.777 -3.027,-6.803 -6.804,-6.803 h -165.542 c -3.779,0 -6.804,3.026 -6.804,6.803 0,3.778 3.025,6.803 6.804,6.803 h 16.631 v 15.116 h 13.223 v -15.116 h 105.832 v 15.116 h 13.224 v -15.116 z" /></g></g></g></g></svg>