<svg xmlns="http://www.w3.org/2000/svg" xmlns:xlink="http://www.w3.org/1999/xlink" viewBox="0 0 283.46 283.46"><defs><path id="a" d="M0 0h283.46v283.46H0z"/></defs><clipPath id="b"><use overflow="visible" xlink:href="#a"/></clipPath><path fill="#007ac9" d="M-.003 248.028c0 19.488 15.945 35.434 35.434 35.434h212.598c19.489 0 35.434-15.946 35.434-35.434V35.43c0-19.488-15.945-35.432-35.434-35.432H35.431C15.942-.002-.003 15.942-.003 35.43v212.598z" clip-path="url(#b)"/><g><defs><path id="c" d="M0 0h283.46v283.46H0z"/></defs><clipPath id="d"><use overflow="visible" xlink:href="#c"/></clipPath><path fill="#fff" fill-rule="evenodd" d="M236.27 205.106l-44.14-44.126a15.183 15.183 0 0 0-2.663-2.117c15.262-28.852 10.754-65.422-13.537-89.701-29.831-29.83-78.187-29.83-108.025 0-29.818 29.82-29.818 78.186 0 108.012 26.154 26.15 66.537 29.372 96.201 9.679.316.389.656.769 1.02 1.132l44.136 44.135c5.963 5.964 15.643 5.964 21.604 0l5.404-5.402c5.964-5.961 5.964-15.638 0-21.612m-76.54-44.126c-20.881 20.873-54.733 20.873-75.619 0-20.884-20.881-20.884-54.738 0-75.624 20.886-20.881 54.738-20.881 75.619 0 20.876 20.886 20.876 54.744 0 75.624" clip-path="url(#d)" clip-rule="evenodd"/></g></svg>