<?xml version="1.0" encoding="UTF-8" standalone="no"?>
<svg
   xmlns:dc="http://purl.org/dc/elements/1.1/"
   xmlns:cc="http://creativecommons.org/ns#"
   xmlns:rdf="http://www.w3.org/1999/02/22-rdf-syntax-ns#"
   xmlns:svg="http://www.w3.org/2000/svg"
   xmlns="http://www.w3.org/2000/svg"
   viewBox="0 0 377.94666 377.94666"
   height="377.94666"
   width="377.94666"
   xml:space="preserve"
   id="svg2"
   version="1.1"><metadata
     id="metadata8"><rdf:RDF><cc:Work
         rdf:about=""><dc:format>image/svg+xml</dc:format><dc:type
           rdf:resource="http://purl.org/dc/dcmitype/StillImage" /></cc:Work></rdf:RDF></metadata><defs
     id="defs6"><clipPath
       id="clipPath18"
       clipPathUnits="userSpaceOnUse"><path
         id="path16"
         d="M 0,283.46 H 283.46 V 0 H 0 Z" /></clipPath></defs><g
     transform="matrix(1.3333333,0,0,-1.3333333,0,377.94667)"
     id="g10"><g
       id="g12"><g
         clip-path="url(#clipPath18)"
         id="g14"><g
           transform="translate(-0.0029,35.4316)"
           id="g20"><path
             id="path22"
             style="fill:#ff6319;fill-opacity:1;fill-rule:nonzero;stroke:none"
             d="m 0,0 c 0,-19.488 15.945,-35.434 35.434,-35.434 h 212.598 c 19.489,0 35.434,15.946 35.434,35.434 v 212.598 c 0,19.488 -15.945,35.432 -35.434,35.432 H 35.434 C 15.945,248.03 0,232.086 0,212.598 Z" /></g><g
           transform="translate(165.4316,35.4316)"
           id="g24"><path
             id="path26"
             style="fill:#ffffff;fill-opacity:1;fill-rule:nonzero;stroke:none"
             d="m 0,0 40.193,137.963 v 6.038 c 0,0.395 0.514,0.787 1.155,0.576 L 41.346,0 H 85.515 V 212.598 H 20.542 L -20.283,67.241 -21.06,57.491 c -0.381,-0.189 -0.514,-0.189 -0.893,0 l -1.158,9.75 -40.828,145.357 h -65.233 L -129.17,0 h 44.559 v 144.577 c 0.511,0.211 1.152,-0.181 1.152,-0.576 v -6.038 L -43.529,0 H 0" /></g></g></g></g></svg>