<svg xmlns="http://www.w3.org/2000/svg" xmlns:xlink="http://www.w3.org/1999/xlink" viewBox="0 0 283.46 283.46"><defs><path id="a" d="M0 0h283.46v283.46H0z"/></defs><clipPath id="b"><use overflow="visible" xlink:href="#a"/></clipPath><path fill="#007ac9" d="M-.003 248.028c0 19.488 15.945 35.434 35.434 35.434h212.598c19.489 0 35.434-15.946 35.434-35.434V35.43c0-19.488-15.945-35.432-35.434-35.432H35.431C15.942-.002-.003 15.942-.003 35.43v212.598z" clip-path="url(#b)"/><g><defs><path id="c" d="M0 0h283.46v283.46H0z"/></defs><clipPath id="d"><use overflow="visible" xlink:href="#c"/></clipPath><path fill="#fff" d="M104.946 209.459l13.476-29.068a19.947 19.947 0 0 0 5.09-2.717l.069-.043.092-.065c3.831-2.962 6.028-7.677 6.135-12.993l.107-5.411 31.196.546 40.978 82.531-24.245 12.738-32.845-65.488-17.227 35.83-25.118 29.658-21.283-17.227 23.575-28.291zM129.712 90.55c7.853.146 15.661 1.941 22.118 7.18 7.383 5.879 10.502 13.932 9.886 22.933l-.605 33.607-31.222-.562.535-29.991-5.465 8.172-.59 32.589c-.068 3.803-1.715 7.034-3.991 8.749-2.545 1.806-5.09 2.893-8.922 2.824-3.831-.08-6.349-1.232-8.825-3.135-2.212-1.805-3.751-5.09-3.686-8.894l.669-37.882 17.013-30.354c2.492-3.575 7.1-5.343 13.085-5.236m53.463 60.279l-17.146-.294.455-25.425 17.146.307c3.805.069 7.035 1.703 8.762 3.979 1.809 2.573 2.881 5.103 2.813 8.934-.082 3.831-1.233 6.338-3.136 8.829-1.795 2.223-5.09 3.75-8.894 3.67m-38.176-63.455c-15.846-.279-28.544-13.353-28.265-29.106.268-15.753 13.45-28.372 29.298-28.077 15.86.279 28.543 13.353 28.26 29.095-.279 15.753-13.434 28.371-29.293 28.088" clip-path="url(#d)"/></g></svg>